<?xml version="1.0" encoding="utf-8"?>
<!-- Generator: Adobe Illustrator 16.0.0, SVG Export Plug-In . SVG Version: 6.00 Build 0)  -->
<!DOCTYPE svg PUBLIC "-//W3C//DTD SVG 1.1//EN" "http://www.w3.org/Graphics/SVG/1.1/DTD/svg11.dtd">
<svg version="1.1" id="圖層_1" xmlns="http://www.w3.org/2000/svg" xmlns:xlink="http://www.w3.org/1999/xlink" x="0px" y="0px"
	 width="200px" height="200px" viewBox="0 0 200 200" enable-background="new 0 0 200 200" xml:space="preserve">
<path fill="#C9CACA" d="M184.795,143.037c0,9.941-8.059,18-18,18H33.494c-9.941,0-18-8.059-18-18V44.952c0-9.941,8.059-18,18-18
	h133.301c9.941,0,18,8.059,18,18V143.037z"/>
<circle fill="#FFFFFF" cx="37.39" cy="50.88" r="6.998"/>
<circle fill="#FFFFFF" cx="54.115" cy="50.88" r="6.998"/>
<path fill="#FFFFFF" d="M167.188,50.88c0,3.865-3.133,6.998-6.998,6.998H72.379c-3.865,0-6.998-3.133-6.998-6.998l0,0
	c0-3.865,3.133-6.998,6.998-6.998h87.811C164.055,43.882,167.188,47.015,167.188,50.88L167.188,50.88z"/>
<rect x="31.296" y="66.907" fill="#FFFFFF" width="132.279" height="77.878"/>
<circle fill="#9BCA3E" cx="96.754" cy="144.785" r="37.574"/>
<polyline fill="none" stroke="#FFFFFF" stroke-width="8" stroke-miterlimit="10" points="108.497,133.047 93.373,153.814 
	82.989,143.204 "/>
</svg>
