<svg xmlns="http://www.w3.org/2000/svg" height="48px" viewBox="0 -960 960 960" width="48px" fill="#8C1AF6"><path d="M95-445q-15-15-15-35t15-35q15-15 35-15t35 15q15 15 15 35t-15 35q-15 15-35 15t-35-15Zm108 284-43-43 173-173 43 43-173 173Zm130-424L161-757l43-43 172 172-43 43ZM445-95q-15-15-15-35t15-35q15-15 35-15t35 15q15 15 15 35t-15 35q-15 15-35 15t-35-15Zm0-700q-15-15-15-35t15-35q15-15 35-15t35 15q15 15 15 35t-15 35q-15 15-35 15t-35-15Zm182 210-43-43 172-172 43 43-172 172Zm129 423L584-334l43-43 172 172-43 43Zm39-283q-15-15-15-35t15-35q15-15 35-15t35 15q15 15 15 35t-15 35q-15 15-35 15t-35-15Z"/></svg>