<svg xmlns="http://www.w3.org/2000/svg" height="24px" viewBox="0 -960 960 960" width="24px" fill="#000000"><path d="M183.5-183.5Q160-207 160-240t23.5-56.5Q207-320 240-320t56.5 23.5Q320-273 320-240t-23.5 56.5Q273-160 240-160t-56.5-23.5Zm240 0Q400-207 400-240t23.5-56.5Q447-320 480-320t56.5 23.5Q560-273 560-240t-23.5 56.5Q513-160 480-160t-56.5-23.5Zm240 0Q640-207 640-240t23.5-56.5Q687-320 720-320t56.5 23.5Q800-273 800-240t-23.5 56.5Q753-160 720-160t-56.5-23.5Zm-480-240Q160-447 160-480t23.5-56.5Q207-560 240-560t56.5 23.5Q320-513 320-480t-23.5 56.5Q273-400 240-400t-56.5-23.5Zm240 0Q400-447 400-480t23.5-56.5Q447-560 480-560t56.5 23.5Q560-513 560-480t-23.5 56.5Q513-400 480-400t-56.5-23.5Zm240 0Q640-447 640-480t23.5-56.5Q687-560 720-560t56.5 23.5Q800-513 800-480t-23.5 56.5Q753-400 720-400t-56.5-23.5Zm-480-240Q160-687 160-720t23.5-56.5Q207-800 240-800t56.5 23.5Q320-753 320-720t-23.5 56.5Q273-640 240-640t-56.5-23.5Zm240 0Q400-687 400-720t23.5-56.5Q447-800 480-800t56.5 23.5Q560-753 560-720t-23.5 56.5Q513-640 480-640t-56.5-23.5Zm240 0Q640-687 640-720t23.5-56.5Q687-800 720-800t56.5 23.5Q800-753 800-720t-23.5 56.5Q753-640 720-640t-56.5-23.5Z"/></svg>