<?xml version="1.0" encoding="utf-8"?>
<!-- Generator: Adobe Illustrator 16.0.0, SVG Export Plug-In . SVG Version: 6.00 Build 0)  -->
<!DOCTYPE svg PUBLIC "-//W3C//DTD SVG 1.1//EN" "http://www.w3.org/Graphics/SVG/1.1/DTD/svg11.dtd">
<svg version="1.1" xmlns="http://www.w3.org/2000/svg" xmlns:xlink="http://www.w3.org/1999/xlink" x="0px" y="0px" width="128px"
	 height="128px" viewBox="0 0 128 128" enable-background="new 0 0 128 128" xml:space="preserve">
<g id="圖層_2">
	<polygon fill="#95D5F4" points="110.998,23.424 110.998,84.064 17.001,84.064 17.001,13.652 48.449,13.469 55.315,23.669 	"/>
</g>
<g id="圖層_3">
	<polygon fill="#6BC2EC" points="110.998,84.064 17.001,84.064 17.087,31.401 110.57,31.401 	"/>
</g>
<g id="圖層_4">
	<rect x="17.001" y="103.51" fill="#B5B5B6" width="93.997" height="4.691"/>
	<rect x="60.985" y="84.064" fill="#B5B5B6" width="6.029" height="19.445"/>
	<path fill="#C9CACA" d="M72.935,110.512c0,2.221-1.8,4.02-4.021,4.02h-9.827c-2.221,0-4.021-1.799-4.021-4.02v-9.828
		c0-2.221,1.8-4.021,4.021-4.021h9.827c2.221,0,4.021,1.801,4.021,4.021V110.512z"/>
</g>
</svg>
