<svg xmlns="http://www.w3.org/2000/svg" height="48" viewBox="0 -960 960 960" width="48"><path d="M109.912-150Q81-150 60.5-170.589 40-191.177 40-220.089 40-249 60.494-269.5t49.273-20.5q5.233 0 10.233.5 5 .5 13 2.5l200-200q-2-8-2.5-13t-.5-10.233q0-28.779 20.589-49.273Q371.177-580 400.089-580 429-580 449.5-559.366t20.5 49.61Q470-508 467-487l110 110q8-2 13-2.5t10-.5q5 0 10 .5t13 2.5l160-160q-2-8-2.5-13t-.5-10.233q0-28.779 20.589-49.273Q821.177-630 850.089-630 879-630 899.5-609.411q20.5 20.588 20.5 49.5Q920-531 899.506-510.5T850.233-490Q845-490 840-490.5q-5-.5-13-2.5L667-333q2 8 2.5 13t.5 10.233q0 28.779-20.589 49.273Q628.823-240 599.911-240 571-240 550.5-260.494T530-309.767q0-5.233.5-10.233.5-5 2.5-13L423-443q-8 2-13 2.5t-10.25.5q-1.75 0-22.75-3L177-243q2 8 2.5 13t.5 10.233q0 28.779-20.589 49.273Q138.823-150 109.912-150ZM160-592l-20.253-43.747L96-656l43.747-20.253L160-720l20.253 43.747L224-656l-43.747 20.253L160-592Zm440-51-30.717-66.283L503-740l66.283-30.717L600-837l30.717 66.283L697-740l-66.283 30.717L600-643Z"/></svg>