<?xml version="1.0" encoding="utf-8"?>
<!-- Generator: Adobe Illustrator 16.0.0, SVG Export Plug-In . SVG Version: 6.00 Build 0)  -->
<!DOCTYPE svg PUBLIC "-//W3C//DTD SVG 1.1//EN" "http://www.w3.org/Graphics/SVG/1.1/DTD/svg11.dtd">
<svg version="1.1" id="圖層_1" xmlns="http://www.w3.org/2000/svg" xmlns:xlink="http://www.w3.org/1999/xlink" x="0px" y="0px"
	 width="600px" height="200px" viewBox="0 0 600 200" enable-background="new 0 0 600 200" xml:space="preserve">
<g>
	<path fill="#213040" d="M464.798,122.75c0-4.639,3.26-7.434,7.405-7.434c2.018,0,3.614,0.854,4.611,1.805l-1.374,1.437
		c-0.865-0.737-1.885-1.281-3.192-1.281c-2.816,0-4.789,2.058-4.789,5.415c0,3.378,1.84,5.474,4.723,5.474
		c1.485,0,2.615-0.602,3.591-1.533l1.397,1.437c-1.33,1.339-2.971,2.076-5.1,2.076C467.969,130.145,464.798,127.447,464.798,122.75z
		"/>
	<path fill="#213040" d="M480.032,115.568h2.572v12.383h6.917v1.922h-9.489V115.568z"/>
	<path fill="#213040" d="M491.542,123.739v-8.171h2.572v8.308c0,3.241,1.463,4.289,3.503,4.289c2.062,0,3.569-1.048,3.569-4.289
		v-8.308h2.483v8.171c0,4.658-2.438,6.405-6.053,6.405S491.542,128.397,491.542,123.739z"/>
	<path fill="#213040" d="M506.489,128.029l1.507-1.553c1.176,1.009,2.771,1.688,4.368,1.688c1.951,0,3.037-0.815,3.037-2.019
		c0-1.301-1.086-1.708-2.594-2.29l-2.262-0.854c-1.596-0.582-3.325-1.649-3.325-3.746c0-2.251,2.239-3.939,5.365-3.939
		c1.929,0,3.725,0.698,4.922,1.805l-1.308,1.437c-1.021-0.796-2.173-1.281-3.614-1.281c-1.663,0-2.727,0.719-2.727,1.824
		c0,1.242,1.308,1.689,2.615,2.174l2.24,0.835c1.95,0.718,3.325,1.767,3.325,3.862c0,2.29-2.173,4.173-5.742,4.173
		C510.059,130.145,507.975,129.349,506.489,128.029z"/>
	<path fill="#213040" d="M523.94,117.471h-4.767v-1.902h12.172v1.902h-4.789v12.402h-2.616V117.471z"/>
	<path fill="#213040" d="M534.187,115.568h9.645v1.902h-7.072v3.979h5.986v1.902h-5.986v4.6h7.316v1.922h-9.889V115.568z"/>
	<path fill="#213040" d="M552.724,124.108h-2.66v5.765h-2.572v-14.305h5.344c3.37,0,5.897,1.048,5.897,4.153
		c0,2.213-1.353,3.533-3.415,4.096l3.991,6.056h-2.904L552.724,124.108z M552.524,122.304c2.35,0,3.658-0.854,3.658-2.582
		c0-1.727-1.309-2.329-3.658-2.329h-2.461v4.911H552.524z"/>
	<path fill="#213040" d="M464.798,146.035c0-4.639,3.304-7.434,7.649-7.434c2.306,0,3.857,0.893,4.833,1.805l-1.374,1.437
		c-0.82-0.699-1.818-1.281-3.393-1.281c-3.037,0-5.055,2.058-5.055,5.415c0,3.378,1.796,5.474,5.188,5.474
		c0.998,0,1.974-0.271,2.527-0.699v-3.338h-3.215v-1.863h5.565v6.191c-1.086,0.951-2.927,1.688-5.144,1.688
		C468.013,153.43,464.798,150.732,464.798,146.035z"/>
	<path fill="#213040" d="M484.379,138.854h2.971l5.409,14.305h-2.727l-1.375-4.057h-5.676l-1.374,4.057h-2.639L484.379,138.854z
		 M488.037,147.316l-0.644-1.922c-0.532-1.553-1.02-3.145-1.529-4.755h-0.089c-0.488,1.63-0.998,3.202-1.53,4.755l-0.643,1.922
		H488.037z"/>
	<path fill="#213040" d="M496.708,140.756h-4.767v-1.902h12.172v1.902h-4.789v12.402h-2.616V140.756z"/>
	<path fill="#213040" d="M506.954,138.854h9.645v1.902h-7.072v3.979h5.986v1.902h-5.986v4.6h7.316v1.922h-9.889V138.854z"/>
	<path fill="#213040" d="M518.619,138.854h2.639l1.529,7.434c0.289,1.533,0.577,3.048,0.887,4.601h0.089
		c0.333-1.553,0.731-3.086,1.108-4.601l2.085-7.434h2.283l2.106,7.434c0.377,1.515,0.731,3.048,1.108,4.601h0.11
		c0.289-1.553,0.555-3.086,0.82-4.601l1.553-7.434h2.461l-3.215,14.305h-3.171l-2.194-7.938c-0.267-1.126-0.532-2.193-0.754-3.28
		h-0.089c-0.244,1.087-0.51,2.154-0.776,3.28l-2.15,7.938h-3.126L518.619,138.854z"/>
	<path fill="#213040" d="M543.345,138.854h2.971l5.409,14.305h-2.727l-1.375-4.057h-5.676l-1.374,4.057h-2.639L543.345,138.854z
		 M547.003,147.316l-0.644-1.922c-0.532-1.553-1.02-3.145-1.529-4.755h-0.089c-0.488,1.63-0.998,3.202-1.53,4.755l-0.643,1.922
		H547.003z"/>
	<path fill="#213040" d="M556.184,147.763l-4.899-8.909h2.749l1.885,3.805c0.51,1.067,0.976,2.076,1.529,3.144h0.089
		c0.532-1.067,1.064-2.076,1.552-3.144l1.907-3.805h2.683l-4.922,8.909v5.396h-2.572V147.763z"/>
</g>
<g>
	<path fill="#213040" d="M87.513,84.572l-9.7,10.791c5.739,5.162,9.348,12.645,9.348,20.971c0,8.324-3.609,15.809-9.348,20.971
		l9.7,10.791c8.691-7.818,14.158-19.152,14.158-31.762C101.671,103.723,96.205,92.391,87.513,84.572z"/>
	<path fill="#213040" d="M30.41,148.094l9.701-10.789c-5.739-5.162-9.348-12.646-9.348-20.971c0-8.327,3.609-15.809,9.348-20.971
		l-9.7-10.791c-8.691,7.818-14.158,19.15-14.158,31.762C16.252,128.943,21.719,140.277,30.41,148.094z"/>
</g>
<polygon fill="#A9D1F3" points="68.081,79.09 58.962,90.053 49.843,79.09 "/>
<polygon fill="#A9D1F3" points="68.081,142.613 58.962,153.576 49.843,142.613 "/>
<circle fill="#A9D1F3" cx="58.962" cy="116.333" r="13.54"/>
<g>
	<path d="M120.229,141.305l35.696-55.193h-32.398v-9.506h46.366v6.79l-35.696,55.097h36.084v9.603h-50.052V141.305z"/>
	<path d="M177.072,121.42c0-17.752,11.931-28.033,25.22-28.033c13.192,0,25.026,10.281,25.026,28.033
		c0,17.751-11.834,28.033-25.026,28.033C189.002,149.453,177.072,139.171,177.072,121.42z M215.872,121.42
		c0-11.252-5.238-18.818-13.58-18.818c-8.439,0-13.677,7.566-13.677,18.818c0,11.349,5.238,18.721,13.677,18.721
		C210.634,140.141,215.872,132.769,215.872,121.42z"/>
	<path d="M240.509,94.647h9.117l0.971,9.603h0.193c3.783-6.79,9.409-10.863,15.229-10.863c2.619,0,4.268,0.388,5.917,1.067
		l-1.94,9.796c-1.939-0.582-3.201-0.873-5.432-0.873c-4.365,0-9.604,3.008-12.901,11.544v33.174h-11.154V94.647z"/>
	<path d="M274.361,133.933c0-11.543,9.7-17.46,31.913-19.885c-0.096-6.111-2.328-11.543-10.184-11.543
		c-5.626,0-10.864,2.522-15.424,5.432l-4.171-7.566c5.529-3.492,12.998-6.984,21.534-6.984c13.29,0,19.401,8.342,19.401,22.602
		v32.106h-9.119l-0.873-6.11h-0.387c-4.852,4.17-10.574,7.469-16.976,7.469C280.86,149.453,274.361,143.342,274.361,133.933z
		 M306.273,134.224v-12.998c-15.81,1.843-21.146,5.917-21.146,11.834c0,5.335,3.59,7.47,8.343,7.47
		C298.125,140.529,301.908,138.298,306.273,134.224z"/>
	<path d="M343.521,120.256l-16.004-25.608h12.125l6.305,10.767c1.648,3.008,3.299,6.015,5.045,9.021h0.484
		c1.357-3.007,2.813-6.014,4.365-9.021l5.625-10.767h11.641l-16.006,26.772l17.17,26.675h-12.125l-6.984-11.349
		c-1.746-3.104-3.588-6.402-5.529-9.409h-0.484c-1.648,3.007-3.299,6.208-4.947,9.409l-6.207,11.349h-11.641L343.521,120.256z"/>
	<path d="M379.41,169.338l2.135-8.73c0.971,0.291,2.521,0.775,3.977,0.775c5.723,0,9.119-4.268,11.059-9.99l1.164-3.686
		l-21.146-53.06h11.35l9.797,27.548c1.648,4.754,3.297,9.991,4.947,15.035h0.484c1.357-4.947,2.813-10.185,4.172-15.035
		l8.633-27.548h10.766l-19.594,56.648c-4.17,11.446-9.797,19.108-20.951,19.108C383.389,170.404,381.254,170.018,379.41,169.338z"/>
</g>
<line fill="none" stroke="#595757" stroke-width="2" stroke-miterlimit="10" x1="450.003" y1="75" x2="450.003" y2="164.666"/>
</svg>
